<?xml version="1.0" encoding="UTF-8" standalone="no"?><!DOCTYPE svg PUBLIC "-//W3C//DTD SVG 1.1//EN" "http://www.w3.org/Graphics/SVG/1.1/DTD/svg11.dtd"><svg width="100%" height="100%" viewBox="0 0 71113 71113" version="1.1" xmlns="http://www.w3.org/2000/svg" xmlns:xlink="http://www.w3.org/1999/xlink" xml:space="preserve" xmlns:serif="http://www.serif.com/" style="fill-rule:evenodd;clip-rule:evenodd;stroke-linejoin:round;stroke-miterlimit:2;"><g><path d="M19499.5,29168.9c0.699,5.237 2.294,17.721 3.296,29.768c7.562,90.889 15.454,310.425 15.454,420.509l0,421.408l-38.62,80.005c-61.762,123.357 -170.562,187.023 -321.409,187.023c-81.71,-0 -152.77,-30.65 -206.35,-89.589c-0.138,-0.152 -0.277,-0.302 -0.418,-0.451c-94.271,-100.073 -108.534,-196.712 -120.135,-614.393c-5.36,-206.348 -5.526,-328.017 2.728,-402.305c4.583,-41.248 10.686,-65.393 22.095,-80.77c0.039,-0.052 0.078,-0.105 0.116,-0.157c9.925,-13.535 31.435,-22.185 61.283,-30.089c57.542,-15.238 142.449,-21.635 250.281,-19.032c141.379,4.286 175.827,9.223 245.816,40.64c25.272,11.417 50.556,27.205 68.783,41.846c7.338,5.894 13.579,11.06 17.08,15.587Zm8582.23,465.415c0.003,0.002 0.006,0.004 0.009,0.006c-6.179,10.046 -17.243,16.499 -29.522,16.499l0.028,-0.021c12.267,-0.01 23.311,-6.459 29.485,-16.484Zm-29.513,16.505c-5.725,0 -11.361,-1.418 -16.404,-4.127c100.324,53.906 325.571,270.433 1209.04,1158.39l0.014,0.015c1161.88,1166.38 1949.87,1970.15 1997.97,2040.79c0.06,0.088 0.12,0.176 0.181,0.264l31.475,45.322l1.504,5299.35l0,5414.14c0,48.596 0.877,71.462 -8.472,90.438c-5.925,12.026 -15.936,22.055 -31.089,37.21c-35.821,35.817 -53.005,40.826 -124.582,47.22c-54.817,4.511 -807.979,10.426 -1676.83,13.432l-1549.57,4.427l-5.065,-65.829c-0.006,-0.073 -0.012,-0.146 -0.018,-0.219c-4.516,-54.2 -4.397,-2235.72 -1.384,-4847.83c3.014,-2615.46 1.352,-4808.84 -4.675,-4872.15c-0.01,-0.099 -0.02,-0.199 -0.03,-0.298l-12.054,-115.995c-0.744,-7.156 -3.696,-13.904 -8.448,-19.306l-115.342,-131.126c29.065,22.047 54.784,39.699 73.382,49.831c23.24,12.662 41.742,14.315 50.664,12.232c10.873,-2.538 18.597,-8.467 23.913,-16.554c4.127,-6.278 7.646,-15.188 6.275,-27.406c0.532,-4.526 2.691,-12.909 5.849,-20.069c9.9,-21.856 13.933,-42.705 -11.785,-82.983c-23.985,-37.564 -84.178,-103.53 -216.092,-242.825c-0.028,-0.03 -0.057,-0.06 -0.086,-0.09c-80.943,-84.857 -151.644,-163.832 -172.201,-188.312c-0.602,-13.661 -1.916,-46.188 -2.737,-86.354c-5.06,-247.54 -10.116,-930.12 -11.322,-1721.6l0,-0.035l-4.439,-1768.51c-0,0 66.22,-6.113 66.22,-6.113c55.581,-4.634 115.732,-10.897 132.715,-13.983l0.008,-0.002c16,-2.911 94.562,-5.467 174.568,-5.467c0.151,0 0.301,-0.001 0.451,-0.002c106.278,-1.382 147.904,2.254 182.411,20.198c4.933,2.565 10.411,3.906 15.97,3.908l0.019,0.022Zm-0.019,-0.022c-0.917,-0.09 -34.637,-3.576 -34.637,-34.654c0,-8.06 33.72,33.521 34.637,34.654Zm8276.24,14122.6c-3.258,0.267 -40.025,3.23 -84.543,4.742c-219.972,7.466 -815.915,12.999 -1661.41,16.612l-1678.62,7.413c0,0 -3.17,-11.773 -3.17,-11.773c-4.441,-43.024 -5.224,-1788.11 0.753,-3897.22l-0,-0.024c4.519,-2125.65 3.015,-5286.25 -4.52,-7026.24c-7.229,-1778.38 -7.715,-2740.35 -2.22,-3067.11c1.042,-61.983 3.462,-108.52 4.039,-118.987c6.299,-10.599 21.375,-18.429 36.948,-21.707c0.269,-0.056 0.536,-0.116 0.803,-0.179c25.319,-5.958 314.274,-14.217 641.939,-20.176c653.094,-10.825 905.132,-15.2 1013.63,-10.761c61.609,2.52 69.08,7.382 87.009,17.114l0.039,0.022c127.148,68.812 416.405,356.981 1110.49,1097.44l0.048,0.051c120.535,128.067 354.076,375.168 519.811,549.944c0.035,0.036 0.069,0.072 0.103,0.108c165.647,173.178 450.259,475.862 632.473,670.122c182.348,194.403 465.665,495.802 632.942,670.614c165.604,173.134 403.484,424.56 526.937,557.049c123.596,132.639 351.191,373.797 504.93,535.074c153.556,161.082 373.35,394.425 489.268,519.38c0.048,0.051 0.096,0.102 0.144,0.154c116.067,123.598 336.135,354.219 488.373,512.488c0.027,0.028 0.053,0.055 0.079,0.082c275.56,284.595 838.727,883.904 1279.92,1361.24c550.428,595.668 737.434,791.705 966.653,1019.42c0.023,0.024 0.047,0.048 0.071,0.071l244.044,241.028c9.953,9.831 24.842,12.713 37.745,7.306c12.902,-5.406 21.289,-18.04 21.262,-32.03l-7.531,-3851.98c-4.819,-2753.7 -4.858,-3567.52 6.128,-3791.38c1.001,-20.394 2.576,-37.137 3.835,-48.367c45.503,-2.269 179.236,-8.468 335.765,-11.364c697.927,-12.914 2210.01,-17.811 2807.27,-8.768c121.539,1.84 222.854,6.98 237.803,7.764l9.206,5.261l-3.003,7037.53l-4.509,7042.77l-20.222,16.545c-17.904,14.117 -45.621,20.082 -138.19,26.191c-159.157,10.502 -487.755,13.162 -1205.04,15.869l-1068.39,2.971l-187.093,-192.807c-0.025,-0.026 -0.05,-0.051 -0.074,-0.076c-310.235,-317.764 -938.227,-981.904 -1682.18,-1777.06c-236.609,-253.186 -507.877,-541.028 -602.821,-640.494l-0.014,-0.014c-356.897,-373.461 -896.006,-948.715 -1302.6,-1391.45l-0.032,-0.035c-631.152,-685.376 -662.791,-720.03 -1069.49,-1164.39c-762.254,-834.622 -1404.88,-1518.7 -1649.96,-1758.96c-51.274,-50.264 -86.133,-81.716 -101.814,-92.383c-12.492,-8.498 -22.47,-9.84 -27.294,-9.84c-8.227,0 -17.957,2.559 -27.567,9.421c-9.39,6.704 -20.299,19.544 -28.337,34.015c-0.71,1.278 -1.338,2.599 -1.881,3.956c-0.618,1.544 -1.737,4.545 -2.358,9.218c-0.589,4.431 -1.352,22.153 -1.961,52.231c-5.642,278.562 -12.018,1700.93 -14.73,3390.57l0,0.009c-3,2230.57 -9.5,3417.44 -18.482,3459.17c-4.067,14.709 -7.437,25.06 -14.062,32.194c-5.901,6.355 -14.369,9.161 -26.173,12.339c-0.063,0.017 -0.127,0.034 -0.19,0.051Zm23189.3,-14125.8c20.361,2.397 53.343,21.373 73.704,40.533c0.088,0.082 0.176,0.164 0.264,0.245c6.979,6.432 13.366,12.045 18.67,17.725c3.813,4.083 7.196,7.794 8.082,13.241c2.708,16.663 -6.669,39.181 -28.034,80.556c-53.236,103.098 -180.822,295.344 -439.497,687.481c-219.937,331.411 -596.513,900.792 -837.534,1263.83c-241.195,361.797 -504.998,764.288 -586.401,892.425l-0.017,0.026c-263.488,415.556 -385.446,603.763 -602.255,933.494c-265.218,402.348 -430.987,655.527 -610.313,935.813c-76.833,119.015 -323.728,493.872 -549.554,834.115c-364.943,547.417 -574.592,876.242 -740.501,1156.77c-32.714,53.44 -56.18,114.692 -56.18,135.37c0,18.143 6.241,44.787 40.133,105.627c67.103,120.459 252.253,402.712 741.442,1141.25c274.016,414.031 542.008,820.532 594.705,903.339c52.772,82.931 200.536,310.61 328.702,505.118l0.015,0.024c251.472,380.975 596.308,915.545 841.759,1302.54l0.027,0.044c84.428,132.675 232.177,360.329 327.16,505.064c94.748,144.379 242.138,374.48 326.357,511.34c0.03,0.049 0.06,0.097 0.091,0.146c168.811,271.302 498.891,780.749 964.626,1486.13l0.034,0.05c135.199,203.998 216.172,326.339 259.101,408.01c27.733,52.76 39.063,85.176 35.967,113.322c-3.084,28.047 -20.035,50.509 -41.986,83.629c-9.064,13.595 -15.256,25.756 -21.149,36.627c-5.306,9.787 -9.628,18.325 -19.814,24.865c-23.761,15.256 -68.183,22.527 -168.353,28.51c-220.428,13.165 -687.992,10.483 -1718.66,10.483c-811.981,-0 -1510.23,-3.851 -1761.68,-8.477c-38.92,-0.716 -70.384,-1.881 -84.986,-2.479c-9.529,-11.361 -33.878,-40.879 -57.332,-73.275c-83.785,-115.73 -227.202,-331.573 -366.964,-553.301c-104.08,-167.429 -272.966,-428.298 -374.006,-582.118c-100.853,-153.541 -310.09,-481.702 -466.641,-730.078c-156.721,-248.641 -373.706,-589.182 -482.244,-756.515c-106.838,-167.031 -263.296,-413.754 -346.046,-549.161c-0.026,-0.042 -0.052,-0.085 -0.078,-0.127c-220.162,-356.81 -443.781,-695.124 -496.922,-751.304c-0.221,-0.233 -0.445,-0.464 -0.672,-0.691c-21.991,-21.991 -37.678,-34.592 -49.361,-40.319c-12.724,-6.237 -23.778,-7.25 -33.696,-5.566c-10.218,1.736 -19.969,6.503 -29.223,15.758c-0.628,0.627 -1.231,1.279 -1.809,1.953c-9.135,10.659 -126.612,188.613 -259.067,398.713c-387.048,609.936 -509.083,801.273 -641.611,1009.1c-69.324,107.004 -162.722,256.139 -210.938,331.472c-0.033,0.051 -0.066,0.103 -0.098,0.154c-46.639,73.725 -183.557,284.36 -303.92,466.413l-0.017,0.025c-195.86,296.8 -614.697,935.605 -1003.4,1532.22c-58.67,90.08 -101.388,152.003 -137.207,195.146c-47.63,57.369 -80.825,78.487 -127.164,89.635c-36.827,5.997 -860.914,12.829 -1838.25,14.324c-1206.84,1.054 -1600.59,1.437 -1738.54,-7.757c-21.742,-1.449 -36.582,-3.077 -47.083,-5.081c-6.748,-1.287 -9.897,-1.81 -12.116,-3.599c-25.66,-25.068 -68.134,-93.366 -91.727,-143.029c-7.597,-15.992 -14.012,-29.051 -14.584,-36.793c0.97,-2.683 8.137,-22.182 18.581,-42.258c36.543,-70.244 121.737,-207.73 283.168,-458.264l0.029,-0.046c91.922,-143.153 281.789,-441.516 421.93,-663.029c140.039,-221.352 328.25,-514.963 415.643,-652.078c88.934,-137.176 244.119,-381.249 346.577,-542.471c183.707,-289.109 269.541,-423.128 593.263,-918.502c90.397,-137.102 210.906,-322.385 271.166,-414.281c0.024,-0.037 0.048,-0.074 0.072,-0.111c478.99,-736.559 846.517,-1296.89 1286.34,-1961.14l0.015,-0.023c235.145,-355.731 491.394,-750.657 572.791,-878.782c0.052,-0.082 0.104,-0.165 0.155,-0.247c79.533,-127.552 174.06,-276.124 210.075,-328.649c0.048,-0.069 0.095,-0.139 0.142,-0.209c31.015,-45.945 51.902,-85.718 59.678,-111.483c5.487,-18.182 5.048,-32.66 2.192,-42.395c-16.338,-62.28 -149.544,-281.551 -418.802,-684.679l-0.012,-0.019c-151.993,-227.235 -358.164,-543.258 -457.494,-699.779c-205.078,-324.207 -572.998,-877.597 -821.799,-1236.47c-91.852,-132.508 -272.536,-397.51 -402.041,-587.251c-129.577,-191.355 -360.065,-530.309 -512.225,-753.273l-0.012,-0.018c-246.882,-361.292 -433.549,-644.305 -769.247,-1166.67l-0.034,-0.052c-120.568,-186.878 -717.353,-1083.57 -944.942,-1419.68c-83.476,-123.778 -158.048,-242.624 -165.394,-265.052c-3.009,-14.399 1.702,-29.632 11.36,-45.61c13.345,-22.077 35.759,-44.481 66.073,-66.886c0.228,-0.168 0.454,-0.34 0.677,-0.514c9.284,-7.22 16.833,-10.08 60.939,-13.68c135.072,-11.025 535.19,-11.563 1856.63,-13.67l1880.99,-2.987c0.001,-0 72.489,81.715 72.489,81.715l0.051,0.058c135.281,151.817 862.545,1226.7 1405.17,2077.47c63.332,99.522 196.004,303.058 294.008,452.323c500.73,763.188 729.809,1098.54 822.989,1202.21c19.795,22.026 35.022,34.911 45.618,40.973c10.441,5.974 19.477,7.732 26.567,7.732c6.869,0 20.966,-3.176 35.906,-17.841c21.986,-21.582 65.619,-82.679 109.844,-157.223c108.3,-180.498 239.188,-385.077 540.011,-842.325c0.024,-0.036 0.048,-0.073 0.071,-0.109c116.232,-178.125 240.005,-368.33 273.212,-422.673c33.086,-54.139 118.811,-189.489 189.494,-300.777c70.851,-111.548 218.58,-349.725 328.624,-527.6c109.9,-177.651 254.427,-412.512 322.175,-519.402c0.039,-0.062 0.078,-0.123 0.117,-0.185c67.889,-108.622 179.531,-291.169 248.926,-407.333l0.031,-0.053c176.852,-297.229 360.515,-572.6 417.419,-628.33c41.834,-39.186 51.919,-39.275 156.636,-43.202c210.719,-7.515 3626.52,2.554 3679.13,11.575c0.603,0.103 1.209,0.19 1.816,0.261Zm-40219.1,13596.5c0.213,0.11 0.426,0.218 0.641,0.324c92.531,45.574 180.021,145.965 204.896,234.353c17.704,63.468 18.097,146.177 7.77,503.306c-7.273,232.618 -19.143,439.504 -26.543,466.563c-7.724,17.153 -22.809,24.513 -56.974,30.636c-51.393,9.21 -135.032,11.508 -275.025,11.508c-130.807,0 -206.878,-1.518 -252.624,-9.969c-28.788,-5.319 -40.187,-12.265 -46.199,-28.913c-0.115,-0.32 -0.236,-0.638 -0.36,-0.954c-3.633,-9.201 -5.58,-42.932 -8.144,-92.369c-6.671,-128.598 -9.49,-353.254 -5.711,-552.405c2.503,-131.891 7.858,-252.524 17.019,-326.114c3.299,-26.507 6.41,-45.992 10.886,-55.837c19.682,-40.094 59.954,-94.498 99.291,-136.05c23.779,-25.119 46.549,-45.853 63.998,-53.038c0.295,-0.121 0.588,-0.247 0.88,-0.377c24.288,-10.795 72.535,-17.02 123.688,-16.751c51.36,0.27 105.932,7.119 142.511,26.087Zm6310.51,-6973.9c0.785,21.437 1.834,54.406 2.528,93.136c12.791,713.737 21.271,4231.96 7.721,4429.76l-0.004,0.063l-9.7,145.523c0,-0 -77.055,79.758 -77.055,79.758c-0.113,0.116 -0.224,0.233 -0.335,0.351c-46.358,49.348 -174.972,170.419 -285.643,270.623c-111.602,99.541 -328.633,298.484 -482.376,440.17c-0.028,0.025 -0.055,0.051 -0.083,0.076c-1015.6,942.092 -1720.54,1387.86 -2805.14,1776.4c-638.545,227.835 -1338.55,362.717 -2031.05,392.699l-69.738,2.989l-2.577,-212.624c-0.01,-140.167 -9.744,-287.917 -20.521,-331.68c-42.855,-189.85 -189.499,-370.633 -380.965,-468.74c-0.051,-0.026 -0.102,-0.052 -0.153,-0.077c-129.891,-65.746 -312.718,-81.33 -439.453,-38.086c-181.761,60.115 -340.128,206.769 -427.065,391.704c-0.013,0.029 -0.027,0.058 -0.041,0.088c-65.125,139.553 -86.107,255.712 -86.107,519.315l0,159.195l-16.438,-2.223c-0.451,-0.061 -0.904,-0.113 -1.358,-0.156c-31.62,-3.01 -130.997,-13.552 -222.846,-22.586l-0.035,-0.004c-785.478,-76.449 -1942.63,-463.423 -2752.1,-922.119l-0.033,-0.019c-206.743,-116.854 -668.171,-429.96 -844.952,-572.282l-0.038,-0.031c-327.005,-262.506 -880.426,-835.605 -1234.43,-1278.11l-0.029,-0.036c-546.881,-681.733 -970.896,-1525.28 -1194.14,-2376.32l-0.015,-0.06c-118.501,-448.497 -161.899,-727.514 -217.4,-1410.01c-10.205,-125.261 -25.111,-219.31 -44.225,-282.219c-15.015,-49.417 -34.031,-81.614 -53.71,-98.377c-0.174,-0.148 -0.35,-0.295 -0.527,-0.44c-7.234,-5.919 -24.544,-13.628 -55.792,-18.206c-50.721,-7.431 -151.282,-12.897 -322.098,-18.234c-0.073,-0.003 -0.147,-0.005 -0.22,-0.007c-292.978,-7.287 -329.869,-10.228 -398.302,-39.319c-128.491,-56.568 -249.23,-208.042 -287.442,-360.486c-12.743,-53.572 -10.48,-63.707 20.123,-127.466c41.92,-86.611 105.205,-146.254 204.398,-196.548l0.079,-0.041c71.372,-36.416 74.479,-33.876 466.309,-33.876c202.708,0 373.361,-2.643 405.466,-6.464c32.372,-3.854 35.928,-31.579 35.928,-35.722c-0,-31.434 63.008,-669.081 76.48,-763.383c0.018,-0.123 0.034,-0.246 0.051,-0.369c46.423,-351.907 236.73,-1024.23 408.94,-1442.03l0.035,-0.086c94.409,-230.778 325.198,-687.829 469.059,-924.602c0.031,-0.05 0.061,-0.1 0.091,-0.15c514.196,-855.995 1280.1,-1698.64 1999.68,-2199.35c359.861,-250.403 727.242,-455.779 1213.05,-673.196c624.639,-278.614 1045.54,-403.016 1655.2,-486.903l0.088,-0.013c147.026,-20.611 502.838,-45.129 635.118,-45.382c0,-0 29.426,222.171 29.426,222.171c1.399,13.991 28.609,285.72 34.538,324.368c15.919,111.045 92.861,252.785 194.464,359.164c296.974,312.805 759.251,270.093 1029.22,-98.327l0.033,-0.044c101.024,-138.33 143.4,-305.72 154.281,-642.988l0.002,-0.068c1.956,-64.565 4.532,-122.183 6.113,-155.719c130.849,-2.544 636.131,35.679 844.404,66.918c945.221,142.308 1911.27,577.044 2801.06,1261.62l0.033,0.025c257.567,197.67 1201.44,1058.24 1277.81,1166.06c0.084,0.118 0.168,0.235 0.253,0.352l22.366,30.754l-28.208,44.925c-0.028,0.044 -0.055,0.089 -0.083,0.133c-68.987,110.982 -1104.48,1128.66 -1576.9,1550.09l-0.055,0.049c-144.835,129.75 -408.866,381.688 -764.913,731.703l-195.462,191.497l-16.637,-20.949c-409.726,-528.063 -840.994,-940.484 -1227.95,-1175.7c-567.183,-345.172 -1269.69,-541.34 -1935.71,-541.34c-547.419,0 -1227.14,170.246 -1725.9,431.792l-0.068,0.035c-363.409,191.589 -599.054,358.915 -868.187,621.96c-598.587,580.374 -987.778,1338.37 -1147.3,2228.67l-0.004,0.02c-45.665,255.723 -50.28,826.532 -9.182,1095.95l0.006,0.037c98.762,642.701 338.885,1238.27 702.017,1747.27l0.011,0.016c106.374,148.925 343.358,411.884 522.673,580.561l0.006,0.005c660.981,621.476 1470.88,989.177 2367.38,1077.31l0.021,0.002c264.659,25.856 786.371,9.019 1008.44,-32.049c478.006,-88.015 823.993,-200.366 1221.6,-394.616l0.015,-0.008c350.204,-171.31 614.079,-347.041 1041.6,-695.731c0.048,-0.039 0.096,-0.078 0.143,-0.117c70.165,-57.854 297.715,-422.251 374.428,-577.03c17.849,-36.013 27.469,-62.734 28.543,-74.349c1.542,-16.678 -5.154,-26.9 -10.911,-32.658c-2.46,-2.459 -10.459,-11.172 -27.338,-10.137c-4.104,0.252 -23.893,3.966 -56.373,11.089c-265.05,58.128 -1466.93,342.985 -1712.56,393.446c-10.472,2.151 -20.386,3.989 -27.383,5.24c-87.264,-74.707 -694.404,-705.32 -1222.57,-1266.5c-186.834,-198.886 -501.722,-531.854 -697.59,-738.266l-0.004,-0.005c-196.783,-207.299 -386.079,-410.071 -422.131,-452.133c-52.506,-61.259 -101.901,-134.041 -132.985,-192.883c-17.878,-33.844 -30.406,-61.71 -30.406,-78.32c0,-34.879 14.516,-74.083 37.421,-111.959c36.439,-60.258 94.588,-116.908 158.356,-147.551l71.207,-34.231c0,-0 3542.77,3.005 3542.77,3.005c1756.78,1.357 3230.53,7.587 3513.2,13.213c5.898,0.117 11.578,0.26 16.79,0.408Z" style="fill:#0d0d0d;fill-rule:nonzero;stroke:#000;stroke-width:270.83px;"/></g></svg>